<?xml version="1.0" encoding="iso-8859-1"?>
<!-- Uploaded to: SVG Repo, www.svgrepo.com, Generator: SVG Repo Mixer Tools -->
<svg fill="#000000" version="1.1" id="Layer_1" xmlns="http://www.w3.org/2000/svg" xmlns:xlink="http://www.w3.org/1999/xlink" 
	 viewBox="0 0 512 512" xml:space="preserve">
<g>
	<g>
		<path d="M437.019,74.981c-99.815-99.815-262.222-99.815-362.037,0C26.63,123.333,0,187.62,0,256
			c0,68.38,26.63,132.667,74.981,181.019C124.889,486.926,190.444,511.88,256,511.88c65.555,0,131.111-24.954,181.019-74.861
			C485.37,388.667,512,324.38,512,256C512,187.62,485.37,123.333,437.019,74.981z M423.611,423.611
			c-92.426,92.407-242.796,92.407-335.222,0C43.62,378.843,18.963,319.315,18.963,256c0-63.315,24.657-122.845,69.426-167.611
			C134.602,42.183,195.301,19.072,256,19.072c60.699,0,121.398,23.111,167.611,69.317C468.38,133.155,493.037,192.685,493.037,256
			C493.037,319.315,468.38,378.843,423.611,423.611z"/>
	</g>
</g>
<g>
	<g>
		
			<rect x="146.976" y="100.412" transform="matrix(0.5547 -0.8321 0.8321 0.5547 -64.4372 201.9593)" width="18.961" height="121.534"/>
	</g>
</g>
<g>
	<g>
		
			<rect x="294.802" y="151.684" transform="matrix(0.832 -0.5548 0.5548 0.832 -29.6733 224.3435)" width="121.53" height="18.961"/>
	</g>
</g>
<g>
	<g>
		<path d="M379.259,303.361H132.741c-5.236,0-9.481,4.264-9.481,9.505c0,73.194,59.546,132.752,132.741,132.752
			s132.741-59.565,132.741-132.759C388.741,307.618,384.495,303.361,379.259,303.361z M256,426.62
			c-59.542,0-108.551-45.037-113.384-104.296h226.769C364.551,381.583,315.542,426.62,256,426.62z"/>
	</g>
</g>
</svg>